<?xml version="1.0" encoding="UTF-8"?>
<svg id="_レイヤー_2" data-name="レイヤー 2" xmlns="http://www.w3.org/2000/svg" xmlns:xlink="http://www.w3.org/1999/xlink" viewBox="0 0 250.48 64.18">
  <defs>
    <style>
      .cls-1 {
        fill: url(#_名称未設定グラデーション_18-2);
      }

      .cls-2 {
        fill: url(#_名称未設定グラデーション_18-5);
      }

      .cls-3 {
        fill: url(#_名称未設定グラデーション_18-4);
      }

      .cls-4 {
        fill: url(#_名称未設定グラデーション_18-3);
      }

      .cls-5 {
        fill: url(#_名称未設定グラデーション_18);
      }
    </style>
    <linearGradient id="_名称未設定グラデーション_18" data-name="名称未設定グラデーション 18" x1="262.62" y1="25.59" x2="-17.97" y2="25.59" gradientUnits="userSpaceOnUse">
      <stop offset="0" stop-color="#174f96"/>
      <stop offset="1" stop-color="#2ca6e0"/>
    </linearGradient>
    <linearGradient id="_名称未設定グラデーション_18-2" data-name="名称未設定グラデーション 18" x1="262.62" y1="38.42" x2="-17.97" y2="38.42" xlink:href="#_名称未設定グラデーション_18"/>
    <linearGradient id="_名称未設定グラデーション_18-3" data-name="名称未設定グラデーション 18" x1="262.62" y1="31.11" x2="-17.97" y2="31.11" xlink:href="#_名称未設定グラデーション_18"/>
    <linearGradient id="_名称未設定グラデーション_18-4" data-name="名称未設定グラデーション 18" x1="262.62" y1="32.09" x2="-17.97" y2="32.09" xlink:href="#_名称未設定グラデーション_18"/>
    <linearGradient id="_名称未設定グラデーション_18-5" data-name="名称未設定グラデーション 18" x1="262.62" y1="25.59" x2="-17.97" y2="25.59" xlink:href="#_名称未設定グラデーション_18"/>
  </defs>
  <g id="_レイヤー_1-2" data-name="レイヤー 1">
    <g>
      <path class="cls-5" d="M35.5,4.88c-1.98-1.23-4.42-2.18-7.32-2.85s-6.36-1.01-10.36-1.01H2.39C1.07,1.02,0,2.09,0,3.41v44.36c0,1.32,1.07,2.39,2.39,2.39h14.94c3.92,0,7.3-.29,10.16-.86s5.49-1.58,7.89-3.04c3.19-1.94,5.83-4.71,7.92-8.33s3.13-7.72,3.13-12.29-.97-8.88-2.92-12.39c-1.95-3.51-4.61-6.3-8-8.36ZM31.71,33.74c-1.08,2.21-2.77,3.98-5.08,5.3-1.34.73-2.72,1.23-4.12,1.5s-3.62.41-6.63.41h-.81c-1.32,0-2.39-1.07-2.39-2.39V12.58c0-1.32,1.07-2.39,2.39-2.39h.81c2.73,0,4.77.12,6.12.35s2.68.67,3.98,1.3c2.55,1.3,4.42,3.1,5.59,5.39s1.77,5.06,1.77,8.3-.54,5.99-1.62,8.2Z"/>
      <path class="cls-1" d="M89.27,13.1h-6.98c-1.01,0-1.91.64-2.25,1.59l-5.69,16.13c-.74,2.11-3.71,2.13-4.49.03l-5.99-16.2c-.35-.94-1.24-1.56-2.24-1.56h-7.31c-1.68,0-2.84,1.69-2.22,3.26l12.78,32.61c.23.58.22,1.23-.03,1.8l-4.1,9.66c-.67,1.57.49,3.32,2.2,3.32h7.68c.97,0,1.85-.59,2.21-1.49l18.65-45.87c.64-1.57-.52-3.29-2.21-3.29Z"/>
      <path class="cls-4" d="M123.88,12.08c-2.37,0-4.53.44-6.47,1.32-1.94.88-3.97,2.14-6.08,3.79v-1.7c0-1.32-1.07-2.39-2.39-2.39h-7.14c-1.32,0-2.39,1.07-2.39,2.39v32.28c0,1.32,1.07,2.39,2.39,2.39h7.14c1.32,0,2.39-1.07,2.39-2.39v-22.46c0-.9.52-1.74,1.32-2.14.8-.41,1.57-.72,2.29-.95,1.11-.35,2.21-.53,3.28-.53,1.52,0,2.7.19,3.55.56s1.49.97,1.93,1.78c.37.7.64,1.8.79,3.28s.23,2.98.23,4.47v15.99c0,1.32,1.07,2.39,2.39,2.39h7.14c1.32,0,2.39-1.07,2.39-2.39v-21.73c0-4.64-1.13-8.13-3.38-10.46-2.25-2.33-5.38-3.5-9.37-3.5Z"/>
      <path class="cls-3" d="M182.19,48.95c4.22-1.74,7.5-4.49,9.85-8.25,2.64-4.23,3.96-9.27,3.96-15.1,0-7.9-2.25-14.14-6.76-18.72-4.51-4.59-10.7-6.88-18.58-6.88s-14.09,2.29-18.58,6.88-6.73,10.83-6.73,18.72,2.05,13.57,6.15,18.06c3.75,4.12,8.87,6.52,15.34,7.22,1.04.11,1.87.94,2.03,1.97.19,1.23.5,2.39.93,3.46.64,1.58,1.59,2.96,2.87,4.12,1.3,1.19,2.92,2.11,4.87,2.76s4.23.97,6.85.97c2.97,0,5.17-.11,6.62-.33.72-.11,1.41-.23,2.07-.35,1.13-.21,1.94-1.2,1.94-2.35v-6.74h-1.25c-.48.24-1.34.52-2.57.82s-2.3.46-3.2.46c-2.66,0-4.54-.48-5.64-1.43-.67-.58-1.16-1.4-1.45-2.44-.32-1.15.2-2.42,1.31-2.88ZM179.2,38.04c-1.1,1.32-2.39,2.29-3.86,2.92s-3.02.94-4.65.94-3.18-.31-4.65-.92-2.76-1.57-3.86-2.87-1.99-2.98-2.66-5.03c-.67-2.06-1.01-4.55-1.01-7.47s.35-5.37,1.04-7.54,1.59-3.87,2.69-5.1c1.19-1.32,2.49-2.27,3.91-2.84s2.93-.86,4.54-.86,3.11.3,4.57.89,2.76,1.55,3.88,2.87c1.1,1.28,1.99,2.95,2.67,5.02s1.02,4.58,1.02,7.52c0,2.75-.3,5.14-.89,7.18-.59,2.03-1.51,3.8-2.74,5.3Z"/>
      <path class="cls-2" d="M249.97,46.3l-11.69-15.01c-.87-1.12-.56-2.73.64-3.49,2.01-1.26,3.63-2.73,4.86-4.41,1.68-2.29,2.52-5.25,2.52-8.88,0-2.64-.54-4.83-1.63-6.58-1.09-1.75-2.56-3.17-4.4-4.27-1.83-1.1-3.78-1.81-5.87-2.14s-4.59-.49-7.49-.49h-18.86c-1.32,0-2.39,1.07-2.39,2.39v44.36c0,1.32,1.07,2.39,2.39,2.39h7.83c1.32,0,2.39-1.07,2.39-2.39v-13.24c0-1.32,1.07-2.39,2.39-2.39h2.28c.76,0,1.47.36,1.92.96l11.93,16.09c.45.61,1.16.96,1.92.96h9.39c1.99,0,3.1-2.29,1.88-3.85ZM232.6,19.38c-.41.82-1.05,1.58-1.93,2.26-.92.7-2.07,1.15-3.43,1.35s-3.06.3-5.08.3h-1.51c-1.32,0-2.39-1.07-2.39-2.39v-8.46c0-1.32,1.07-2.39,2.39-2.39h2.2c1.52,0,2.85.04,3.99.12s2.14.29,3,.64c1.23.51,2.1,1.2,2.61,2.08s.76,1.94.76,3.17c0,1.39-.2,2.49-.61,3.32Z"/>
    </g>
  </g>
</svg>